PathFileType	4	(X/Y/Z)	Patient4_TMGait_0pt3_01_left_25.trc.trc
DataRate	CameraRate	NumFrames	NumMarkers	Units	OrigDataRate	OrigDataStartFrame	OrigNumFrames
50.724637681159	50.724637681159	4	33	mm	50.724637681159	89	       141
Frame#	Time	Sacral			L.Shoulder			Chest			R.Shoulder			Neck			R.ASIS			L.ASIS			R.Thigh.Superior			R.Thigh.Lateral			R.Thigh.Inferior			R.Patella			L.Thigh.Superior			L.Thigh.Lateral			L.Thigh.Inferior			L.Patella			L.Shank.Superior			L.Shank.Lateral			L.Shank.Inferior			R.Shank.Superior			R.Shank.Lateral			R.Shank.Inferior			R.Heel			R.Midfoot.Superior			R.Midfoot.Lateral			R.Toe			L.Heel			L.Midfoot.Lateral			L.Midfoot.Superior			L.Toe			L.Elbow			L.Wrist			R.Elbow			R.Wrist			
		X1	Y1	Z1	X2	Y2	Z2	X3	Y3	Z3	X4	Y4	Z4	X5	Y5	Z5	X6	Y6	Z6	X7	Y7	Z7	X8	Y8	Z8	X9	Y9	Z9	X10	Y10	Z10	X11	Y11	Z11	X12	Y12	Z12	X13	Y13	Z13	X14	Y14	Z14	X15	Y15	Z15	X16	Y16	Z16	X17	Y17	Z17	X18	Y18	Z18	X19	Y19	Z19	X20	Y20	Z20	X21	Y21	Z21	X22	Y22	Z22	X23	Y23	Z23	X24	Y24	Z24	X25	Y25	Z25	X26	Y26	Z26	X27	Y27	Z27	X28	Y28	Z28	X29	Y29	Z29	X30	Y30	Z30	X31	Y31	Z31	X32	Y32	Z32	X33	Y33	Z33	

89	48.614857142857	710.933974740136	1003.421523183749	508.316037568601	925.759406643908	1441.231482001439	380.252227220947	990.837502859316	1363.083574216101	556.006355980821	871.138536790098	1431.001441119844	709.797137777273	874.396493917239	1494.300201680004	534.889030524642	923.535978345410	941.336950429156	658.234519791630	945.872303040736	961.686250662050	385.946322250040	982.417782874214	747.094149180503	625.883162122900	905.236402743773	631.320169145788	676.295928491933	992.321290001951	586.525261889715	600.672115489694	999.332343090973	498.329841328872	605.630249020402	966.854925627103	734.451079207581	404.709650442605	871.285115481234	627.100577302928	331.356886625781	945.392188777861	537.174333599033	393.983501978386	933.264481254854	456.539073372536	391.193106534606	871.455076107386	400.325400810524	382.036610179898	738.953197270751	340.837900578348	328.449385752904	739.313174728754	211.390992164648	385.366353001897	973.363097092471	407.711767947481	609.620184588288	903.171790429037	300.836100824978	667.915307591299	950.419120432670	208.098180180759	604.670971024810	821.604329537618	42.430885154575	570.825157060150	992.634956878805	97.750261795642	608.252605784831	904.692767603351	36.742816386525	645.863031538200	1112.593123147463	47.226689715958	634.770061179458	559.318524377009	112.763399860500	418.922113394268	627.022217440551	81.619330163920	340.466723386443	726.087274372004	112.954214612895	364.236918450290	826.980422300183	32.946423985769	338.477347549197	1046.435907219262	1137.724533940169	223.048228670093	1300.185466461280	1081.671671958448	249.770111772334	743.697736151182	1101.907201290760	795.552389338947	771.266505649697	845.085832225765	837.339776553785	
90	48.634571428571	710.989283506786	1003.835732962589	514.826418213742	923.421399080090	1441.969689426473	383.780247482626	991.114222060502	1363.779588769075	558.570383274132	873.583330572199	1431.311576073884	714.036524534729	874.294863680446	1495.016251972063	539.024452879996	925.350195735806	941.713660206418	661.912403858143	944.398039091232	962.464060241466	389.489167716756	982.036867347025	746.193414138726	629.326933755284	903.656404276865	631.089474501358	679.439556469817	989.966597752401	585.697395572140	603.394248676811	996.046896165189	497.570869487466	607.786504697627	971.229774544038	737.360285703055	408.162294049489	879.551491530707	627.848479615850	334.551038799818	956.698313135349	539.334417947263	396.960495181706	945.649306444953	457.297851284988	393.136528850587	881.657377445247	401.560929571423	384.075293741979	746.935899675174	347.154614629639	330.608906497431	743.339300980116	217.316333559356	386.308117559776	969.619023770728	407.175855666482	611.354285204963	899.073653728306	300.366168921928	669.263139142248	945.529030448777	207.722657835837	605.322529966158	815.943185945807	42.414897975864	570.892296236537	986.963362743519	97.668332396143	608.380535554303	899.014677553004	36.730812458176	645.919172521710	1106.949465510895	46.953302394408	634.947405492589	559.904221796662	126.560854084195	419.418710735739	625.990963648280	92.103505632148	340.861377402742	726.645793257562	118.198449487851	364.559898364558	822.699517510152	32.634401575316	338.669238715578	1037.978051425228	1134.532628972644	227.771136227313	1290.645369055793	1071.310259839856	252.233727434538	751.400505138275	1101.157408743811	804.611287059413	782.897908601957	845.135237871851	848.120983624900	
91	48.654285714286	710.767171252538	1004.086997899201	521.116015461145	920.820058911876	1442.464305460562	386.972067904531	991.133615222212	1364.293247658422	560.768626039865	875.864114085603	1431.552703870738	717.897418126065	874.023276154102	1495.580515849640	542.812845365917	926.870050032460	941.975584975969	665.368299261505	942.629211493655	963.084038446875	392.796472556895	981.504991413974	745.339944976671	632.456337062812	902.077470332209	630.798905504637	682.349959643992	987.635029242445	584.890326901474	605.892180630217	992.849597865023	496.776571487753	609.789092122014	975.623694766695	740.507267817576	411.749825140488	888.284991379583	628.778605281666	337.771646738307	968.319231488965	541.950094582714	400.317261767207	958.495523650010	458.521286393453	395.501440770998	892.462612524381	403.099355872181	386.401692915013	755.754767354547	353.749737216502	332.987181714822	748.100704504483	223.740974831489	387.635987546788	965.927240371994	406.600076818438	612.948874686325	894.973516950048	299.899308086381	670.476526553932	940.637274841549	207.337387229658	605.905542228362	810.209235931258	42.421213401506	570.928255173394	981.228203268288	97.580604031074	608.479896074625	893.255774745094	36.729621648992	645.955387561469	1101.220968537916	46.669792322830	635.115872874621	561.516279048053	140.849872566350	420.330845695318	625.912235709788	103.424603560557	341.576492303221	727.932761596863	124.286586345577	365.274214254386	819.126927699445	32.924711153589	338.957041762152	1028.495734540479	1130.788195166292	232.465573451219	1279.444540058901	1059.104600049180	254.596147425215	759.812390025176	1100.140600628133	813.347968764064	795.236197494451	845.033756117816	858.749977881458	
92	48.674000000000	710.290322173868	1004.161874818194	527.146880862976	917.963361455005	1442.708719761791	389.826947980436	990.880992045984	1364.628342173225	562.610610510139	877.940834161968	1431.733037590342	721.369174262762	873.567714090827	1495.980732891386	546.239093736023	928.113250927057	942.135592187085	668.602901076086	940.629742802447	963.552995420413	395.867061436756	980.918197190243	744.560109212223	635.273566666433	900.631691080659	630.445430101898	685.023943658430	985.477503089675	584.116250592519	608.160693701759	989.926024266985	495.928348097731	611.639578914237	979.923750869451	743.860874372252	415.488869943255	897.276912189579	629.927467237159	341.029966991931	980.002268717268	545.025005555644	404.029327923368	971.554490415256	460.226525175389	398.263472850078	903.646239857922	404.951266959847	388.999299554646	765.189917848984	360.509495068508	335.620014589710	753.518598587951	230.524256255754	389.367806927400	962.420167787758	405.966925292171	614.402901825375	890.957572764008	299.447001616928	671.559400122307	935.790415683294	206.933752285094	606.421381125471	804.396345172665	42.447133284638	570.942983763855	975.431160893369	97.490716778630	608.553156937313	887.414958153763	36.737015846550	645.977815727890	1095.407793380175	46.387448585740	635.267494139370	564.156565971102	155.198550390386	421.746888115911	626.838875200591	115.248833139742	342.684176514496	729.971577777631	131.087508320367	366.398655772691	816.457661268955	34.000363262304	339.345440695347	1018.094680572852	1126.581765250196	237.154694453021	1266.428561028306	1044.995312342077	256.896044231896	768.924420814713	1098.861600720508	821.602055350145	808.407669391765	844.811526677382	869.066343526084	
